<!-- <svg xmlns="http://www.w3.org/2000/svg" enable-background="new 0 0 124 124" viewBox="0 0 124 124" id="swiggy">
  <path fill="#f0851d" d="M23.1,41.5c0.2-1.2,0.2-2.5,0.4-3.7c1-4.3,2.7-8.4,5.5-11.9c2-2.5,4-5.1,6.4-7.1c2.9-2.3,6.2-4.2,9.4-6
		c4.5-2.6,9.7-3,14.7-3.3c2.6-0.1,5.2,0.6,7.8,1.1c6.2,1.1,11.6,3.9,16.2,8.1c5.7,5.1,9.4,11.6,11.3,19c1,3.5,0.2,5.7-2.7,6.5
		c-3.1,0.8-6.3,1.3-9.5,1.7c-2.6,0.3-5.2,0.3-7.8,0.4c-0.6,0-1.3-0.1-2-0.2c-0.9-0.1-1.9-0.3-2.8-0.3c-1.1-0.1-2.2,0-3.7,0
		c-0.1-3-0.2-5.5-0.3-8.1c0-2,0.2-4-0.1-5.9c-0.1-0.9-1.2-2.2-1.9-2.3c-1.3-0.2-2.2,0.9-2.2,2.4c0,0.2,0,0.4,0,0.5
		c0,4.8,0.1,9.6,0,14.4c-0.1,3.7,0.9,3.9,4.1,4.2c4.2,0.4,8.4,0,12.6,0.1c3.3,0.1,6.6,0.1,9.8,0.7c3,0.6,5.6,3,5.2,5.7
		c-0.3,2.1-0.5,4.2-1.1,6.1c-1,3.1-2.1,6.2-3.5,9.1c-1.7,3.8-3.4,7.7-5.7,11.3c-4.8,7.5-9.8,14.8-15,22c-2.4,3.4-5.4,6.5-8.1,9.7
		c-0.7,0.8-1.2,0.8-1.9-0.2c-3.1-4.4-6.3-8.7-9.6-13c-3.8-5-7.2-10.4-10-16c-1-2.1-0.8-2.5,1.4-3c1.6-0.4,3.3-0.7,5-0.7
		c3.7-0.1,7.4-0.1,11.1,0c1.5,0,2,1,1.9,2.4c-0.1,2-0.1,4.1,0,6.1c0.1,1.3,0.6,2.5,2.1,2.8c1.6,0.3,2.2-0.8,2.6-2.1
		c0.2-0.6,0.3-1.3,0.3-1.9c0-3.1,0-6.1,0-9.2c0-3.3-1-4.3-4.3-4.2c-3.6,0.1-7.1,0.4-10.7,0.5c-3.2,0.1-6.4,0.1-9.5,0
		c-1.5-0.1-3.3-0.3-4.5-1.1c-1.7-1.2-3.3-2.9-4.2-4.8c-4.2-8.1-6.3-16.8-6.8-26"></path>
</svg>


<path fill="#FF5200" d="M.32 30.5c0-12.966 0-19.446 3.498-23.868a16.086 16.086 0 0 1 2.634-2.634C10.868.5 17.354.5 30.32.5s19.446 0 23.868 3.498c.978.774 1.86 1.656 2.634 2.634C60.32 11.048 60.32 17.534 60.32 30.5s0 19.446-3.498 23.868a16.086 16.086 0 0 1-2.634 2.634C49.772 60.5 43.286 60.5 30.32 60.5s-19.446 0-23.868-3.498a16.086 16.086 0 0 1-2.634-2.634C.32 49.952.32 43.466.32 30.5Z"></path> -->

<svg class="VXJlj" viewBox="0 0 61 61" height="49" width="49"><g clip-path="url(#a)"><path fill="#FF5200" d="M.32 30.5c0-12.966 0-19.446 3.498-23.868a16.086 16.086 0 0 1 2.634-2.634C10.868.5 17.354.5 30.32.5s19.446 0 23.868 3.498c.978.774 1.86 1.656 2.634 2.634C60.32 11.048 60.32 17.534 60.32 30.5s0 19.446-3.498 23.868a16.086 16.086 0 0 1-2.634 2.634C49.772 60.5 43.286 60.5 30.32 60.5s-19.446 0-23.868-3.498a16.086 16.086 0 0 1-2.634-2.634C.32 49.952.32 43.466.32 30.5Z"></path><path fill="#fff" fill-rule="evenodd" d="M32.317 24.065v-6.216a.735.735 0 0 0-.732-.732.735.735 0 0 0-.732.732v7.302c0 .414.336.744.744.744h.714c10.374 0 11.454.54 10.806 2.73-.03.108-.066.21-.102.324-.006.024-.012.048-.018.066-2.724 8.214-10.092 18.492-12.27 21.432a.764.764 0 0 1-1.23 0c-1.314-1.776-4.53-6.24-7.464-11.304-.198-.462-.294-1.542 2.964-1.542h3.984c.222 0 .402.18.402.402v3.216c0 .384.282.738.666.768a.73.73 0 0 0 .582-.216.701.701 0 0 0 .216-.516v-4.362a.76.76 0 0 0-.756-.756h-8.052c-1.404 0-2.256-1.2-2.814-2.292-1.752-3.672-3.006-7.296-3.006-10.152 0-7.314 5.832-13.896 13.884-13.896 7.17 0 12.6 5.214 13.704 11.52.006.054.048.294.054.342.288 3.096-7.788 2.742-11.184 2.76a.357.357 0 0 1-.36-.36v.006Z" clip-rule="evenodd"></path></g><defs><clipPath id="a"><path fill="#fff" d="M.32.5h60v60h-60z"></path></clipPath></defs></svg>